<?xml version="1.0" encoding="UTF-8"?>
<svg width="14px" height="14px" viewBox="0 0 14 14" version="1.1" xmlns="http://www.w3.org/2000/svg" xmlns:xlink="http://www.w3.org/1999/xlink">
    <!-- Generator: Sketch 52.5 (67469) - http://www.bohemiancoding.com/sketch -->
    <title>ttlogo</title>
    <desc>Created with Sketch.</desc>
    <g id="ttlogo" stroke="none" stroke-width="1" fill="none" fill-rule="evenodd">
        <g id="ic_clover_color">
            <path d="M10.9002526,10.8800632 C10.2944211,11.4872211 9.31147368,11.4858947 8.70593684,10.8800632 C8.42593684,10.6002105 8.27267368,10.2362105 8.25351579,9.86926316 C8.25204211,9.83978947 8.25056842,9.81164211 8.25056842,9.78378947 C8.25056842,9.19284211 7.84530526,8.69768421 7.29856842,8.56063158 C7.25730526,8.55031579 7.21604211,8.54147368 7.17330526,8.53557895 C7.15414737,8.53395789 7.13646316,8.53115789 7.11730526,8.52968421 C7.09962105,8.52673684 7.08341053,8.52673684 7.06572632,8.52526316 L7.05098947,8.52526316 C7.03035789,8.52378947 7.00972632,8.52216842 6.99042105,8.52216842 C6.96846316,8.52216842 6.94768421,8.52378947 6.92572632,8.52526316 C6.90494737,8.52673684 6.88446316,8.52806316 6.86383158,8.52968421 C6.82404211,8.53395789 6.78425263,8.53985263 6.74593684,8.54736842 C6.16810526,8.66216842 5.73498947,9.17206316 5.73498947,9.78378947 C5.73498947,9.80736842 5.73498947,9.83094737 5.73351579,9.856 L5.73351579,9.87073684 C5.71141053,10.2362105 5.56109474,10.6002105 5.27962105,10.8800632 C4.67393684,11.4858947 3.69098947,11.4872211 3.08383158,10.8800632 C2.47814737,10.2745263 2.47962105,9.29157895 3.08515789,8.68589474 C3.38578947,8.38378947 3.78235789,8.23185263 4.17730526,8.23052632 L4.18172632,8.23052632 C4.26410526,8.23052632 4.34530526,8.22315789 4.42341053,8.20694737 C4.48383158,8.19501053 4.54130526,8.18042105 4.59730526,8.15964211 L4.6032,8.15816842 C5.06873684,7.98884211 5.40930526,7.55557895 5.43715789,7.03978947 L5.43715789,6.96905263 C5.43877895,6.94547368 5.43715789,6.92336842 5.43583158,6.89964211 C5.40488421,6.31915789 4.98046316,5.84315789 4.42341053,5.73263158 C4.34530526,5.71642105 4.26410526,5.70890526 4.18172632,5.70890526 L4.16993684,5.70890526 C3.77498947,5.70610526 3.38151579,5.55431579 3.08088421,5.25368421 C2.4752,4.648 2.4752,3.66490526 3.08088421,3.05936842 C3.68656842,2.45221053 4.67098947,2.45368421 5.27652632,3.05936842 C5.57435789,3.35690526 5.726,3.74610526 5.73056842,4.13663158 L5.73056842,4.15564211 C5.73056842,4.34574737 5.77183158,4.52406316 5.84698947,4.68631579 C5.91477895,4.82926316 6.00614737,4.95894737 6.11814737,5.06652632 L6.11962105,5.06652632 C6.14762105,5.09305263 6.17562105,5.11810526 6.20494737,5.14315789 C6.22130526,5.15642105 6.23751579,5.16806316 6.2552,5.18 C6.30221053,5.21227368 6.35098947,5.24322105 6.40094737,5.27136842 C6.43778947,5.29052632 6.47477895,5.30821053 6.51309474,5.3228 C6.56909474,5.34637895 6.62789474,5.36421053 6.68846316,5.37894737 C6.7032,5.38336842 6.71941053,5.38631579 6.73414737,5.38911579 L6.75757895,5.39368421 C6.77835789,5.39810526 6.79898947,5.40105263 6.81962105,5.404 C6.83877895,5.40547368 6.85793684,5.40827368 6.87709474,5.40989474 L6.90214737,5.41284211 L6.9272,5.41416842 L6.95962105,5.41578947 L7.0112,5.41578947 C7.02726316,5.41578947 7.04362105,5.41578947 7.05983158,5.41416842 C7.08488421,5.41284211 7.11141053,5.41136842 7.13646316,5.40827368 C7.17183158,5.404 7.20867368,5.39810526 7.24242105,5.39058947 C7.28235789,5.38336842 7.32067368,5.37305263 7.35751579,5.36273684 C7.51077895,5.31543158 7.65225263,5.24042105 7.77604211,5.14315789 C7.82172632,5.10631579 7.86446316,5.06652632 7.90425263,5.02526316 C7.98530526,4.93978947 8.05294737,4.84385263 8.10909474,4.73922105 C8.13562105,4.68631579 8.1592,4.63326316 8.17983158,4.57726316 L8.17983158,4.57578947 C8.20341053,4.50947368 8.22109474,4.44168421 8.23288421,4.37242105 C8.24467368,4.30168421 8.25056842,4.22932632 8.25056842,4.15564211 L8.25056842,4.12189474 C8.25941053,3.73578947 8.4112,3.35410526 8.70593684,3.05936842 C9.31147368,2.45368421 10.2944211,2.45368421 10.9017263,3.05936842 C11.5074105,3.66490526 11.5059368,4.64947368 10.9002526,5.25501053 C10.5981474,5.55726316 10.2002526,5.70890526 9.80383158,5.70890526 C9.76168421,5.70890526 9.71997895,5.71111579 9.67901053,5.71509474 L9.65366316,5.71892632 C9.62124211,5.72261053 9.58882105,5.72688421 9.55728421,5.73322105 L9.55566316,5.73351579 C8.99978947,5.84433684 8.57610526,6.32033684 8.54530526,6.89964211 L8.54530526,6.90553684 C8.54383158,6.92631579 8.54383158,6.94974737 8.54383158,6.97052632 C8.54383158,6.99410526 8.54383158,7.01621053 8.54530526,7.03978947 C8.54707368,7.07191579 8.55090526,7.1036 8.55517895,7.13513684 L8.55753684,7.1596 C8.56092632,7.18185263 8.56608421,7.20322105 8.57050526,7.22503158 C8.57433684,7.24345263 8.57713684,7.26216842 8.58155789,7.28029474 L8.59025263,7.30888421 C8.72701053,7.80168421 9.15541053,8.17305263 9.67915789,8.22448421 C9.72012632,8.22846316 9.76168421,8.23052632 9.80383158,8.23052632 C10.2002526,8.23052632 10.5981474,8.38231579 10.9002526,8.68589474 C11.5059368,9.29157895 11.5074105,10.2745263 10.9002526,10.8800632 M12.7470737,6.96978947 C14.2720421,5.37511579 14.2500842,2.84583158 12.6834105,1.27768421 C11.1139368,-0.290463158 8.58656842,-0.314042105 6.99204211,1.21284211 C5.39751579,-0.314042105 2.8672,-0.290463158 1.2992,1.27606316 C-0.270273684,2.84715789 -0.292378947,5.37747368 1.23730526,6.972 C-0.287957895,8.56652632 -0.264378947,11.0937474 1.30214737,12.6618947 C2.87162105,14.2298947 5.39751579,14.2534737 6.99351579,12.7296842 C8.58951579,14.2534737 11.1154105,14.2284211 12.6819368,12.6618947 C14.2515579,11.0937474 14.2720421,8.56461053 12.7470737,6.96978947" id="Fill-1" fill="#FFFFFE"></path>
            <path d="M12.6865053,12.6573263 C12.6873895,12.6564421 12.6881263,12.6557053 12.6890105,12.6548211 C12.6881263,12.6555579 12.6872421,12.6564421 12.6865053,12.6573263 M12.6910737,12.6526105 C12.6918105,12.6520211 12.6924,12.6512842 12.6931368,12.6506947 C12.6924,12.6514316 12.6918105,12.6520211 12.6910737,12.6526105 M12.6957895,12.6480421 C12.6962316,12.6474526 12.6966737,12.6470105 12.6971158,12.6465684 C12.6966737,12.6470105 12.6962316,12.6474526 12.6957895,12.6480421 M12.7003579,12.6433263 C12.7008,12.6428842 12.7015368,12.6421474 12.7019789,12.6417053 C12.7015368,12.6421474 12.7008,12.6428842 12.7003579,12.6433263 M12.7049263,12.6386105 C12.7055158,12.6381684 12.7058105,12.6377263 12.7064,12.6372842 C12.7059579,12.6375789 12.7053684,12.6383158 12.7049263,12.6386105 M12.7096421,12.6340421 C12.7099368,12.6336 12.7103789,12.6331579 12.7108211,12.6327158 C12.7103789,12.6331579 12.7099368,12.6336 12.7096421,12.6340421 M12.7142105,12.6293263 C12.7145053,12.6288842 12.7148,12.6285895 12.7152421,12.6281474 C12.7149474,12.6284421 12.7145053,12.6290316 12.7142105,12.6293263 M12.7187789,12.6246105 C12.7192211,12.6241684 12.7195158,12.6237263 12.7199579,12.6232842 C12.7195158,12.6237263 12.7192211,12.6241684 12.7187789,12.6246105 M12.7233474,12.6198947 C12.7237895,12.6194526 12.7239368,12.6191579 12.7245263,12.6187158 C12.7240842,12.6191579 12.7236421,12.6194526 12.7233474,12.6198947 M12.7279158,12.6153263 C12.7283579,12.6147368 12.7286526,12.6144421 12.7292421,12.6138526 C12.7286526,12.6144421 12.7283579,12.6147368 12.7279158,12.6153263 M12.7324842,12.6104632 C12.7327789,12.6101684 12.7330737,12.6098737 12.7333684,12.6095789 C12.7329263,12.6098737 12.7327789,12.6100211 12.7324842,12.6104632 M12.7370526,12.6057474 C12.7373474,12.6054526 12.7376421,12.6051579 12.7379368,12.6047158 C12.7376421,12.6051579 12.7373474,12.6054526 12.7370526,12.6057474 M12.7416211,12.6010316 C12.7419158,12.6007368 12.7420632,12.6004421 12.7423579,12.6001474 C12.7420632,12.6004421 12.7419158,12.6007368 12.7416211,12.6010316 M12.7460421,12.5963158 C12.7463368,12.5961684 12.7467789,12.5957263 12.7469263,12.5954316 C12.7466316,12.5957263 12.7463368,12.5960211 12.7460421,12.5963158 M12.7506105,12.5916 C12.7509053,12.5913053 12.7510526,12.5911579 12.7512,12.5908632 C12.7510526,12.5911579 12.7509053,12.5913053 12.7506105,12.5916 M12.7551789,12.5868842 C12.7554737,12.5865895 12.7557684,12.5862947 12.7560632,12.586 C12.7557684,12.5862947 12.7554737,12.5865895 12.7551789,12.5868842 M12.7596,12.5821684 C12.7598947,12.5818737 12.7601895,12.5814316 12.7604842,12.5811368 C12.7601895,12.5814316 12.7598947,12.5818737 12.7596,12.5821684 M12.7641684,12.5774526 C12.7644632,12.5770105 12.7646105,12.5768632 12.7650526,12.5764211 C12.7646105,12.5768632 12.7644632,12.5770105 12.7641684,12.5774526 M12.7685895,12.5725895 C12.7688842,12.5722947 12.7691789,12.572 12.7694737,12.5717053 C12.7691789,12.572 12.7688842,12.5722947 12.7685895,12.5725895 M12.7730105,12.5678737 C12.7734526,12.5675789 12.7737474,12.5672842 12.7740421,12.5668421 C12.7737474,12.5672842 12.7734526,12.5675789 12.7730105,12.5678737 M12.7774316,12.5631579 C12.7777263,12.5628632 12.7783158,12.5624211 12.7784632,12.5621263 C12.7781684,12.5624211 12.7778737,12.5627158 12.7774316,12.5631579 M12.7818526,12.5584421 C12.7822947,12.558 12.7827368,12.5575579 12.7830316,12.5572632 C12.7827368,12.5575579 12.7822947,12.558 12.7818526,12.5584421 M12.7864211,12.5537263 C12.7867158,12.5532842 12.7870105,12.5529895 12.7873053,12.5525474 C12.7871579,12.5528421 12.7867158,12.5534316 12.7864211,12.5537263 M12.7908421,12.5488632 C12.7911368,12.5485684 12.7915789,12.5479789 12.7918737,12.5476842 C12.7915789,12.5479789 12.7911368,12.5485684 12.7908421,12.5488632 M12.7952632,12.5441474 C12.7955579,12.5437053 12.7958526,12.5434105 12.7962947,12.5429684 C12.796,12.5432632 12.7955579,12.5438526 12.7952632,12.5441474 M12.7996842,12.5392842 C12.7999789,12.5389895 12.8004211,12.5385474 12.8007158,12.5381053 C12.8004211,12.5385474 12.7999789,12.5389895 12.7996842,12.5392842 M12.8041053,12.5345684 C12.8042526,12.5342737 12.8048421,12.5336842 12.8051368,12.5333895 C12.8046947,12.5338316 12.8044,12.5341263 12.8041053,12.5345684 M12.8083789,12.5297053 C12.8088211,12.5294105 12.8092632,12.5289684 12.8095579,12.5285263 C12.8091158,12.5289684 12.8088211,12.5292632 12.8083789,12.5297053 M12.8128,12.5249895 C12.8130947,12.5245474 12.8135368,12.5241053 12.8139789,12.5236632 C12.8135368,12.5242526 12.8132421,12.5245474 12.8128,12.5249895 M12.8172211,12.5201263 C12.8175158,12.5198316 12.8179579,12.5192421 12.8184,12.5189474 C12.8179579,12.5193895 12.8176632,12.5196842 12.8172211,12.5201263 M12.8216421,12.5152632 C12.8219368,12.5149684 12.8222316,12.5146737 12.8226737,12.5142316 C12.8222316,12.5146737 12.8219368,12.5149684 12.8216421,12.5152632 M12.8259158,12.5106947 C12.8263579,12.5101053 12.8268,12.5096632 12.8272421,12.5092211 C12.8268,12.5096632 12.8263579,12.5101053 12.8259158,12.5106947 M12.8301895,12.5058316 C12.8306316,12.5053895 12.8310737,12.5049474 12.8315158,12.5043579 C12.8310737,12.5049474 12.8306316,12.5053895 12.8301895,12.5058316 M12.8344632,12.5011158 C12.8349053,12.5005263 12.8354947,12.4999368 12.8359368,12.4994947 C12.8354947,12.4999368 12.8349053,12.5005263 12.8344632,12.5011158 M12.8388842,12.4962526 C12.8393263,12.4956632 12.8396211,12.4952211 12.8402105,12.4947789 C12.8397684,12.4952211 12.8391789,12.4958105 12.8388842,12.4962526 M12.8431579,12.4913895 C12.8436,12.4909474 12.8440421,12.4903579 12.8444842,12.4897684 C12.8440421,12.4903579 12.8436,12.4908 12.8431579,12.4913895 M12.8474316,12.4866737 C12.8478737,12.4860842 12.8483158,12.4856421 12.8489053,12.4849053 C12.8483158,12.4856421 12.8478737,12.4860842 12.8474316,12.4866737 M12.8517053,12.4818105 C12.8521474,12.4812211 12.8527368,12.4806316 12.8531789,12.4801895 C12.8527368,12.4806316 12.8521474,12.4812211 12.8517053,12.4818105 M12.8561263,12.4768 C12.8565684,12.4763579 12.8568632,12.4759158 12.8573053,12.4753263 C12.8568632,12.4759158 12.8565684,12.4763579 12.8561263,12.4768 M12.8602526,12.4720842 C12.8608421,12.4714947 12.8612842,12.4709053 12.8618737,12.4703158 C12.8612842,12.4709053 12.8608421,12.4714947 12.8602526,12.4720842 M12.8643789,12.4673684 C12.8649684,12.4667789 12.8655579,12.4660421 12.8661474,12.4654526 C12.8655579,12.4661895 12.8651158,12.4666316 12.8643789,12.4673684 M12.8686526,12.4626526 C12.8692421,12.4619158 12.8698316,12.4611789 12.8704211,12.4604421 C12.8698316,12.4611789 12.8692421,12.4619158 12.8686526,12.4626526 M12.8729263,12.4576421 C12.8735158,12.4570526 12.8741053,12.4563158 12.8745474,12.4557263 C12.8741053,12.4563158 12.8735158,12.4570526 12.8729263,12.4576421 M12.8772,12.4527789 C12.8777895,12.4521895 12.8783789,12.4514526 12.8789684,12.4507158 C12.8783789,12.4514526 12.8777895,12.4520421 12.8772,12.4527789 M12.8813263,12.4480632 C12.8819158,12.4473263 12.8825053,12.4465895 12.8830947,12.446 C12.8825053,12.4467368 12.8819158,12.4473263 12.8813263,12.4480632 M12.8856,12.4432 C12.8861895,12.4424632 12.8867789,12.4417263 12.8873684,12.4409895 C12.8867789,12.4417263 12.8861895,12.4424632 12.8856,12.4432 M12.8898737,12.4381895 C12.8904632,12.4374526 12.8909053,12.4368632 12.8914947,12.4362737 C12.8909053,12.4368632 12.8904632,12.4374526 12.8898737,12.4381895 M12.894,12.4334737 C12.8945895,12.4327368 12.8953263,12.4318526 12.8959158,12.4311158 C12.8951789,12.432 12.8947368,12.4325895 12.894,12.4334737 M12.8979789,12.4286105 C12.8987158,12.4280211 12.8994526,12.4269895 12.9000421,12.4264 C12.8994526,12.4271368 12.8987158,12.4278737 12.8979789,12.4286105 M12.9022526,12.4237474 C12.9028421,12.4230105 12.9035789,12.4221263 12.9043158,12.4213895 C12.9037263,12.4221263 12.9028421,12.4230105 12.9022526,12.4237474 M12.9063789,12.4188842 C12.9069684,12.4181474 12.9077053,12.4174105 12.9084421,12.4165263 C12.9077053,12.4174105 12.9071158,12.4181474 12.9063789,12.4188842 M12.9105053,12.4140211 C12.9112421,12.4132842 12.9119789,12.4124 12.9127158,12.4115158 C12.9119789,12.4124 12.9112421,12.4132842 12.9105053,12.4140211 M12.9144842,12.4093053 C12.9152211,12.4084211 12.9161053,12.4075368 12.9168421,12.4066526 C12.9159579,12.4075368 12.9152211,12.4084211 12.9144842,12.4093053 M12.9186105,12.4045895 C12.9194947,12.4035579 12.9202316,12.4026737 12.9209684,12.4016421 C12.9202316,12.4025263 12.9193474,12.4035579 12.9186105,12.4045895 M12.9225895,12.3997263 C12.9234737,12.3988421 12.9243579,12.3976632 12.9250947,12.3967789 C12.9243579,12.3976632 12.9234737,12.3988421 12.9225895,12.3997263 M12.9267158,12.3950105 C12.9276,12.3938316 12.9284842,12.3928 12.9293684,12.3916211 C12.9284842,12.3928 12.9276,12.3938316 12.9267158,12.3950105 M12.9304,12.3905895 C12.9312842,12.3892632 12.9324632,12.3879368 12.9334947,12.3867579 C12.9324632,12.3879368 12.9314316,12.3892632 12.9304,12.3905895 M12.9343789,12.3857263 C12.9355579,12.3844 12.9365895,12.3830737 12.9376211,12.3817474 C12.9365895,12.3830737 12.9355579,12.3844 12.9343789,12.3857263 M12.9382105,12.3811579 C12.9393895,12.3796842 12.9405684,12.3782105 12.9417474,12.3768842 C12.9407158,12.3782105 12.9392421,12.3798316 12.9382105,12.3811579 M12.9421895,12.3762947 C14.2484632,10.8003368 14.1827368,8.47206316 12.7481053,6.97082105 C12.7484,6.97052632 12.7486947,6.97008421 12.7489895,6.96978947 C14.1837684,8.47103158 14.2484632,10.8003368 12.9421895,12.3762947 M8.57492632,7.25214737 C8.55915789,7.18332632 8.54913684,7.11229474 8.54530526,7.03978947 C8.54383158,7.01694737 8.54383158,6.99543158 8.54383158,6.97273684 C8.54383158,6.99543158 8.54383158,7.01694737 8.54530526,7.03978947 C8.54589474,7.04892632 8.54648421,7.05791579 8.54722105,7.06690526 C8.55193684,7.13012632 8.56122105,7.19187368 8.57492632,7.25214737 M8.5456,6.89595789 C8.5456,6.89566316 8.5456,6.89536842 8.5456,6.89492632 C8.5456,6.89536842 8.5456,6.89566316 8.5456,6.89595789 M8.54574737,6.89242105 C8.54574737,6.89197895 8.54574737,6.89138947 8.54589474,6.89109474 C8.54574737,6.89153684 8.54574737,6.89183158 8.54574737,6.89242105 M8.54604211,6.88873684 C8.54604211,6.88814737 8.54604211,6.88770526 8.54604211,6.88726316 C8.54604211,6.88770526 8.54604211,6.88814737 8.54604211,6.88873684 M8.54618947,6.88505263 C8.54618947,6.88446316 8.54633684,6.88402105 8.54633684,6.88357895 C8.54633684,6.88402105 8.54618947,6.88461053 8.54618947,6.88505263 M8.54648421,6.88136842 C8.54648421,6.88077895 8.54648421,6.88033684 8.54663158,6.87974737 C8.54648421,6.88033684 8.54648421,6.88077895 8.54648421,6.88136842 M8.54663158,6.87768421 C8.54677895,6.87724211 8.54677895,6.87665263 8.54677895,6.87621053 C8.54677895,6.87665263 8.54677895,6.87724211 8.54663158,6.87768421 M8.54692632,6.87414737 C8.54707368,6.87311579 8.54707368,6.87193684 8.54722105,6.87090526 C8.54707368,6.87193684 8.54707368,6.87311579 8.54692632,6.87414737 M8.54736842,6.86898947 C8.54736842,6.8684 8.54751579,6.86781053 8.54751579,6.86707368 C8.54751579,6.86781053 8.54736842,6.8684 8.54736842,6.86898947 M8.54766316,6.8656 C8.54766316,6.86486316 8.54781053,6.86412632 8.54781053,6.86338947 C8.54781053,6.86412632 8.54766316,6.86486316 8.54766316,6.8656 M8.54795789,6.86206316 C8.54795789,6.86132632 8.54810526,6.86044211 8.54810526,6.85970526 C8.54810526,6.86044211 8.54795789,6.86132632 8.54795789,6.86206316 M8.54825263,6.85852632 C8.54825263,6.85778947 8.5484,6.85690526 8.5484,6.85616842 C8.5484,6.85690526 8.54825263,6.85778947 8.54825263,6.85852632 M8.54854737,6.85498947 C8.54854737,6.85410526 8.54869474,6.85336842 8.54869474,6.85263158 C8.54869474,6.85336842 8.54854737,6.85410526 8.54854737,6.85498947 M8.54884211,6.85174737 C8.54913684,6.84762105 8.54957895,6.84349474 8.55002105,6.83951579 C8.54957895,6.84349474 8.54913684,6.84762105 8.54884211,6.85174737 M8.55002105,6.83877895 C8.55016842,6.83789474 8.55031579,6.83701053 8.55031579,6.83612632 C8.55031579,6.83701053 8.55016842,6.83789474 8.55002105,6.83877895 M8.55046316,6.83538947 C8.55046316,6.83435789 8.55061053,6.83347368 8.55075789,6.83244211 C8.55061053,6.83347368 8.55046316,6.83435789 8.55046316,6.83538947 M8.55075789,6.83214737 C8.55090526,6.83111579 8.55090526,6.83008421 8.55105263,6.82905263 C8.55105263,6.83008421 8.55090526,6.83111579 8.55075789,6.83214737 M8.55105263,6.82890526 C8.61987368,6.20214737 9.14981053,5.71332632 9.79528421,5.70905263 C9.58189474,5.71037895 9.38103158,5.76490526 9.20536842,5.85981053 C8.84976842,6.05168421 8.59717895,6.40934737 8.55105263,6.82890526 M9.79602105,5.70905263 C9.79646316,5.70905263 9.79705263,5.70905263 9.79749474,5.70905263 C9.79705263,5.70905263 9.79646316,5.70905263 9.79602105,5.70905263" id="Fill-2" fill="#489EB4"></path>
            <path d="M9.80250526,13.8549895 C8.79111579,13.8549895 7.77957895,13.4800842 6.99351579,12.7296842 C7.01709474,12.7090526 7.04067368,12.6853263 7.06277895,12.6633684 C7.83498947,11.8896842 8.23288421,10.8831579 8.25351579,9.86926316 C8.25204211,9.83978947 8.25056842,9.81164211 8.25056842,9.78378947 C8.25056842,9.19284211 7.84530526,8.69768421 7.29856842,8.56063158 C7.25730526,8.55031579 7.21604211,8.54147368 7.17330526,8.53557895 C7.15414737,8.53395789 7.13646316,8.53115789 7.11730526,8.52968421 C7.09962105,8.52673684 7.08341053,8.52673684 7.06572632,8.52526316 L7.05098947,8.52526316 L7.06572632,8.52526316 C7.08341053,8.52673684 7.09962105,8.52673684 7.11730526,8.52968421 C7.13646316,8.53115789 7.15414737,8.53395789 7.17330526,8.53557895 C7.21604211,8.54147368 7.25730526,8.55031579 7.29856842,8.56063158 C7.84530526,8.69768421 8.25056842,9.19284211 8.25056842,9.78378947 C8.25056842,9.81164211 8.25204211,9.83978947 8.25351579,9.86926316 C8.27267368,10.2362105 8.42593684,10.6002105 8.70593684,10.8800632 C9.00892632,11.1832 9.40637895,11.3349895 9.80368421,11.3349895 C10.2006947,11.3349895 10.5975579,11.1834947 10.9002526,10.8800632 C11.2038316,10.5773684 11.3551789,10.1802105 11.3550316,9.78305263 C11.3548842,9.38589474 11.2030947,8.98873684 10.9002526,8.68589474 C10.5981474,8.38231579 10.2002526,8.23052632 9.80383158,8.23052632 C9.84067368,8.23052632 9.87604211,8.22743158 9.91288421,8.22463158 C9.89814737,8.22610526 9.88341053,8.22743158 9.86867368,8.22905263 C10.8884632,8.21284211 11.9053053,7.8148 12.6834105,7.03684211 C12.7053684,7.01503158 12.7268842,6.99307368 12.7481053,6.97082105 C14.1827368,8.47206316 14.2484632,10.8003368 12.9421895,12.3762947 C12.9420421,12.3765895 12.9418947,12.3765895 12.9417474,12.3768842 C12.9405684,12.3782105 12.9393895,12.3796842 12.9382105,12.3811579 C12.9380632,12.3813053 12.9379158,12.3814526 12.9376211,12.3817474 C12.9365895,12.3830737 12.9355579,12.3844 12.9343789,12.3857263 C12.9340842,12.3860211 12.9337895,12.3863158 12.9334947,12.3867579 C12.9324632,12.3879368 12.9312842,12.3892632 12.9304,12.3905895 C12.9301053,12.3908842 12.9296632,12.3913263 12.9293684,12.3916211 C12.9284842,12.3928 12.9276,12.3938316 12.9267158,12.3950105 C12.9261263,12.3956 12.9256842,12.3961895 12.9250947,12.3967789 C12.9243579,12.3976632 12.9234737,12.3988421 12.9225895,12.3997263 C12.922,12.4004632 12.9217053,12.4009053 12.9209684,12.4016421 C12.9202316,12.4026737 12.9194947,12.4035579 12.9186105,12.4045895 C12.9180211,12.4051789 12.9174316,12.4059158 12.9168421,12.4066526 C12.9161053,12.4075368 12.9152211,12.4084211 12.9144842,12.4093053 C12.9138947,12.4100421 12.9133053,12.4107789 12.9127158,12.4115158 C12.9119789,12.4124 12.9112421,12.4132842 12.9105053,12.4140211 C12.9097684,12.4149053 12.9091789,12.4156421 12.9084421,12.4165263 C12.9077053,12.4174105 12.9069684,12.4181474 12.9063789,12.4188842 C12.9056421,12.4197684 12.9050526,12.4205053 12.9043158,12.4213895 C12.9035789,12.4221263 12.9028421,12.4230105 12.9022526,12.4237474 C12.9013684,12.4247789 12.9007789,12.4253684 12.9000421,12.4264 C12.8994526,12.4269895 12.8987158,12.4280211 12.8979789,12.4286105 C12.8973895,12.4294947 12.8966526,12.4303789 12.8959158,12.4311158 C12.8953263,12.4318526 12.8945895,12.4327368 12.894,12.4334737 C12.8931158,12.4343579 12.8922316,12.4353895 12.8914947,12.4362737 C12.8909053,12.4368632 12.8904632,12.4374526 12.8898737,12.4381895 C12.8891368,12.4390737 12.8882526,12.4401053 12.8873684,12.4409895 C12.8867789,12.4417263 12.8861895,12.4424632 12.8856,12.4432 C12.8847158,12.4440842 12.8839789,12.4449684 12.8830947,12.446 C12.8825053,12.4465895 12.8819158,12.4473263 12.8813263,12.4480632 C12.8804421,12.4489474 12.8797053,12.4498316 12.8789684,12.4507158 C12.8783789,12.4514526 12.8777895,12.4521895 12.8772,12.4527789 C12.8763158,12.4538105 12.8754316,12.4546947 12.8745474,12.4557263 C12.8741053,12.4563158 12.8735158,12.4570526 12.8729263,12.4576421 C12.8720421,12.4586737 12.8713053,12.4595579 12.8704211,12.4604421 C12.8698316,12.4611789 12.8692421,12.4619158 12.8686526,12.4626526 C12.8677684,12.4635368 12.8668842,12.4645684 12.8661474,12.4654526 C12.8655579,12.4660421 12.8649684,12.4667789 12.8643789,12.4673684 C12.8636421,12.4682526 12.8626105,12.4694316 12.8618737,12.4703158 C12.8612842,12.4709053 12.8608421,12.4714947 12.8602526,12.4720842 C12.8592211,12.4732632 12.8583368,12.4742947 12.8573053,12.4753263 C12.8568632,12.4759158 12.8565684,12.4763579 12.8561263,12.4768 C12.8550947,12.4779789 12.8542105,12.4790105 12.8531789,12.4801895 C12.8527368,12.4806316 12.8521474,12.4812211 12.8517053,12.4818105 C12.8508211,12.4828421 12.8497895,12.4840211 12.8489053,12.4849053 C12.8483158,12.4856421 12.8478737,12.4860842 12.8474316,12.4866737 C12.8465474,12.4877053 12.8455158,12.4887368 12.8444842,12.4897684 C12.8440421,12.4903579 12.8436,12.4909474 12.8431579,12.4913895 C12.8421263,12.4925684 12.8412421,12.4936 12.8402105,12.4947789 C12.8396211,12.4952211 12.8393263,12.4956632 12.8388842,12.4962526 C12.8378526,12.4972842 12.8369684,12.4983158 12.8359368,12.4994947 C12.8354947,12.4999368 12.8349053,12.5005263 12.8344632,12.5011158 C12.8334316,12.5021474 12.8325474,12.5033263 12.8315158,12.5043579 C12.8310737,12.5049474 12.8306316,12.5053895 12.8301895,12.5058316 C12.8291579,12.5070105 12.8281263,12.5080421 12.8272421,12.5092211 C12.8268,12.5096632 12.8263579,12.5101053 12.8259158,12.5106947 C12.8247368,12.5118737 12.8237053,12.5130526 12.8226737,12.5142316 C12.8222316,12.5146737 12.8219368,12.5149684 12.8216421,12.5152632 C12.8206105,12.5164421 12.8192842,12.5177684 12.8184,12.5189474 C12.8179579,12.5192421 12.8175158,12.5198316 12.8172211,12.5201263 C12.8161895,12.5213053 12.8150105,12.5226316 12.8139789,12.5236632 C12.8135368,12.5241053 12.8130947,12.5245474 12.8128,12.5249895 C12.8117684,12.5261684 12.8105895,12.5273474 12.8095579,12.5285263 C12.8092632,12.5289684 12.8088211,12.5294105 12.8083789,12.5297053 C12.8073474,12.5310316 12.8061684,12.5322105 12.8051368,12.5333895 C12.8048421,12.5336842 12.8042526,12.5342737 12.8041053,12.5345684 C12.8030737,12.5356 12.8017474,12.5370737 12.8007158,12.5381053 C12.8004211,12.5385474 12.7999789,12.5389895 12.7996842,12.5392842 C12.7985053,12.5406105 12.7974737,12.5416421 12.7962947,12.5429684 C12.7958526,12.5434105 12.7955579,12.5437053 12.7952632,12.5441474 C12.7940842,12.5453263 12.7930526,12.5465053 12.7918737,12.5476842 C12.7915789,12.5479789 12.7911368,12.5485684 12.7908421,12.5488632 C12.7895158,12.5501895 12.7886316,12.5512211 12.7873053,12.5525474 C12.7870105,12.5529895 12.7867158,12.5532842 12.7864211,12.5537263 C12.7852421,12.5549053 12.7842105,12.5560842 12.7830316,12.5572632 C12.7827368,12.5575579 12.7822947,12.558 12.7818526,12.5584421 C12.7808211,12.5596211 12.7796421,12.5608 12.7784632,12.5621263 C12.7783158,12.5624211 12.7777263,12.5628632 12.7774316,12.5631579 C12.7764,12.5643368 12.7752211,12.5656632 12.7740421,12.5668421 C12.7737474,12.5672842 12.7734526,12.5675789 12.7730105,12.5678737 C12.7718316,12.5692 12.7706526,12.5703789 12.7694737,12.5717053 C12.7691789,12.572 12.7688842,12.5722947 12.7685895,12.5725895 C12.7674105,12.5737684 12.7662316,12.5752421 12.7650526,12.5764211 C12.7646105,12.5768632 12.7644632,12.5770105 12.7641684,12.5774526 C12.7628421,12.5786316 12.7616632,12.5799579 12.7604842,12.5811368 C12.7601895,12.5814316 12.7598947,12.5818737 12.7596,12.5821684 C12.7584211,12.5834947 12.7572421,12.5846737 12.7560632,12.586 C12.7557684,12.5862947 12.7554737,12.5865895 12.7551789,12.5868842 C12.7538526,12.5882105 12.7525263,12.5896842 12.7512,12.5908632 C12.7510526,12.5911579 12.7509053,12.5913053 12.7506105,12.5916 C12.7492842,12.5929263 12.7482526,12.5941053 12.7469263,12.5954316 C12.7467789,12.5957263 12.7463368,12.5961684 12.7460421,12.5963158 C12.7448632,12.5976421 12.7436842,12.5989684 12.7423579,12.6001474 C12.7420632,12.6004421 12.7419158,12.6007368 12.7416211,12.6010316 C12.7404421,12.6022105 12.7391158,12.6035368 12.7379368,12.6047158 C12.7376421,12.6051579 12.7373474,12.6054526 12.7370526,12.6057474 C12.7358737,12.6069263 12.7345474,12.6084 12.7333684,12.6095789 C12.7330737,12.6098737 12.7327789,12.6101684 12.7324842,12.6104632 C12.7314526,12.6114947 12.7302737,12.6128211 12.7292421,12.6138526 C12.7286526,12.6144421 12.7283579,12.6147368 12.7279158,12.6153263 C12.7267368,12.6163579 12.7255579,12.6175368 12.7245263,12.6187158 C12.7239368,12.6191579 12.7237895,12.6194526 12.7233474,12.6198947 C12.7223158,12.6209263 12.7209895,12.6222526 12.7199579,12.6232842 C12.7195158,12.6237263 12.7192211,12.6241684 12.7187789,12.6246105 C12.7176,12.6257895 12.7164211,12.6269684 12.7152421,12.6281474 C12.7148,12.6285895 12.7145053,12.6288842 12.7142105,12.6293263 C12.7130316,12.6305053 12.712,12.6315368 12.7108211,12.6327158 C12.7103789,12.6331579 12.7099368,12.6336 12.7096421,12.6340421 C12.7084632,12.6350737 12.7074316,12.6361053 12.7064,12.6372842 C12.7058105,12.6377263 12.7055158,12.6381684 12.7049263,12.6386105 C12.7038947,12.6397895 12.7030105,12.6406737 12.7019789,12.6417053 C12.7015368,12.6421474 12.7008,12.6428842 12.7003579,12.6433263 C12.6993263,12.6443579 12.6981474,12.6455368 12.6971158,12.6465684 C12.6966737,12.6470105 12.6962316,12.6474526 12.6957895,12.6480421 C12.6949053,12.6487789 12.6940211,12.6498105 12.6931368,12.6506947 C12.6924,12.6512842 12.6918105,12.6520211 12.6910737,12.6526105 C12.6903368,12.6534947 12.6897474,12.6540842 12.6890105,12.6548211 C12.6881263,12.6557053 12.6873895,12.6564421 12.6865053,12.6573263 C12.6848842,12.6588 12.6834105,12.6604211 12.6819368,12.6618947 C11.8868842,13.4569474 10.8446947,13.8549895 9.80250526,13.8549895 M5.73351579,9.87073684 L5.73351579,9.856 C5.73498947,9.83094737 5.73498947,9.80736842 5.73498947,9.78378947 C5.73498947,9.17206316 6.16810526,8.66216842 6.74593684,8.54736842 C6.78425263,8.53985263 6.82404211,8.53395789 6.86383158,8.52968421 C6.88446316,8.52806316 6.90494737,8.52673684 6.92572632,8.52526316 C6.94768421,8.52378947 6.96846316,8.52216842 6.99042105,8.52216842 C7.00854737,8.52216842 7.02785263,8.52364211 7.04715789,8.52496842 C7.02932632,8.52378947 7.01149474,8.52378947 6.99498947,8.52378947 C6.97141053,8.52378947 6.94930526,8.52378947 6.92572632,8.52526316 C6.90494737,8.52673684 6.88446316,8.52806316 6.86383158,8.52968421 C6.82404211,8.53395789 6.78425263,8.53985263 6.74593684,8.54736842 C6.16810526,8.66216842 5.73498947,9.17206316 5.73498947,9.78378947 C5.73498947,9.80736842 5.73498947,9.83094737 5.73351579,9.856 L5.73351579,9.87073684 M8.54722105,7.06690526 C8.54648421,7.05791579 8.54589474,7.04892632 8.54530526,7.03978947 C8.54383158,7.01694737 8.54383158,6.99543158 8.54383158,6.97273684 C8.54383158,6.972 8.54383158,6.97126316 8.54383158,6.97052632 C8.54383158,6.96993684 8.54383158,6.9692 8.54383158,6.96861053 C8.54383158,6.9692 8.54383158,6.96993684 8.54383158,6.97052632 C8.54383158,6.99115789 8.54383158,7.01326316 8.54530526,7.03536842 C8.54589474,7.04583158 8.54648421,7.05644211 8.54722105,7.06690526 M8.54530526,6.90553684 L8.54530526,6.89964211 C8.54545263,6.89846316 8.54545263,6.89728421 8.5456,6.89595789 C8.5456,6.89566316 8.5456,6.89536842 8.5456,6.89492632 C8.5456,6.89404211 8.54574737,6.89315789 8.54574737,6.89242105 C8.54574737,6.89183158 8.54574737,6.89153684 8.54589474,6.89109474 C8.54589474,6.89021053 8.54589474,6.88947368 8.54604211,6.88873684 C8.54604211,6.88814737 8.54604211,6.88770526 8.54604211,6.88726316 C8.54618947,6.88652632 8.54618947,6.88578947 8.54618947,6.88505263 C8.54618947,6.88461053 8.54633684,6.88402105 8.54633684,6.88357895 C8.54633684,6.88284211 8.54633684,6.88210526 8.54648421,6.88136842 C8.54648421,6.88077895 8.54648421,6.88033684 8.54663158,6.87974737 C8.54663158,6.87915789 8.54663158,6.87842105 8.54663158,6.87768421 C8.54677895,6.87724211 8.54677895,6.87665263 8.54677895,6.87621053 C8.54692632,6.87547368 8.54692632,6.87488421 8.54692632,6.87414737 C8.54707368,6.87311579 8.54707368,6.87193684 8.54722105,6.87090526 C8.54722105,6.87031579 8.54736842,6.86972632 8.54736842,6.86898947 C8.54736842,6.8684 8.54751579,6.86781053 8.54751579,6.86707368 C8.54751579,6.86663158 8.54751579,6.86604211 8.54766316,6.8656 C8.54766316,6.86486316 8.54781053,6.86412632 8.54781053,6.86338947 C8.54781053,6.86294737 8.54781053,6.86250526 8.54795789,6.86206316 C8.54795789,6.86132632 8.54810526,6.86044211 8.54810526,6.85970526 C8.54810526,6.85926316 8.54810526,6.85896842 8.54825263,6.85852632 C8.54825263,6.85778947 8.5484,6.85690526 8.5484,6.85616842 C8.5484,6.85572632 8.54854737,6.85528421 8.54854737,6.85498947 C8.54854737,6.85410526 8.54869474,6.85336842 8.54869474,6.85263158 C8.54869474,6.85233684 8.54884211,6.85189474 8.54884211,6.85174737 C8.54913684,6.84762105 8.54957895,6.84349474 8.55002105,6.83951579 C8.55002105,6.83922105 8.55002105,6.83907368 8.55002105,6.83877895 C8.55016842,6.83789474 8.55031579,6.83701053 8.55031579,6.83612632 C8.55031579,6.83583158 8.55031579,6.83568421 8.55046316,6.83538947 C8.55046316,6.83435789 8.55061053,6.83347368 8.55075789,6.83244211 C8.55075789,6.83229474 8.55075789,6.83214737 8.55075789,6.83214737 C8.55090526,6.83111579 8.55105263,6.83008421 8.55105263,6.82905263 C8.55105263,6.82905263 8.55105263,6.82890526 8.55105263,6.82890526 C8.59717895,6.40934737 8.84976842,6.05168421 9.20536842,5.85981053 C8.82854737,6.06347368 8.56741053,6.45326316 8.54530526,6.90553684" id="Fill-3" fill="#42A6C7"></path>
            <path d="M7.14309474,6.18 C7.1764,6.16121762 7.21073684,6.13660622 7.24242105,6.10551813 C7.27985263,6.07572539 7.31581053,6.03427461 7.35058947,5.9915285 C7.31581053,6.03427461 7.27985263,6.07572539 7.24242105,6.1061658 C7.21073684,6.13660622 7.1764,6.16121762 7.14309474,6.18 M6.40094737,5.5815544 C6.35098947,5.45849741 6.30221053,5.32183938 6.2552,5.18 C6.30221053,5.32183938 6.35098947,5.45784974 6.40094737,5.5815544" id="Fill-4" fill="#D52331"></path>
            <path d="M1.23730526,6.972 C0.482778947,6.18549474 0.105957895,5.1716 0.105810526,4.15741053 C0.105810526,3.11492632 0.503705263,2.07229474 1.2992,1.27606316 C2.09425263,0.481747368 3.13644211,0.0842947368 4.17892632,0.0842947368 C5.19237895,0.0842947368 6.20612632,0.460231579 6.99204211,1.21284211 C6.96846316,1.232 6.94488421,1.25557895 6.92263158,1.27768421 C6.14614737,2.05431579 5.74825263,3.06673684 5.73189474,4.08652632 L5.73189474,4.09242105 C5.73056842,4.10701053 5.73056842,4.12189474 5.73056842,4.13663158 L5.73056842,4.15564211 L5.73056842,4.13663158 C5.726,3.74610526 5.57435789,3.35690526 5.27652632,3.05936842 C4.97368421,2.75623158 4.57578947,2.60444211 4.17804211,2.60444211 C3.78073684,2.60444211 3.38357895,2.75593684 3.08088421,3.05936842 C2.77804211,3.36221053 2.62654737,3.75936842 2.62654737,4.15652632 C2.62654737,4.55368421 2.77804211,4.95084211 3.08088421,5.25368421 C3.38151579,5.55431579 3.77498947,5.70610526 4.16993684,5.70890526 L4.18172632,5.70890526 C4.26410526,5.70890526 4.34530526,5.71642105 4.42341053,5.73263158 C4.98046316,5.84315789 5.40488421,6.31915789 5.43583158,6.89964211 C5.43686316,6.91673684 5.43789474,6.93294737 5.43789474,6.94945263 C5.43789474,6.93294737 5.43686316,6.91673684 5.43583158,6.89964211 C5.40488421,6.31915789 4.98046316,5.84315789 4.42341053,5.73263158 C4.34530526,5.71642105 4.26410526,5.70890526 4.18172632,5.70890526 L4.16993684,5.70890526 L4.09477895,5.71347368 C3.08235789,5.73263158 2.07435789,6.13052632 1.30214737,6.90273684 C1.28004211,6.92469474 1.25646316,6.94842105 1.23730526,6.972" id="Fill-5" fill="#EA0029"></path>
            <path d="M7.05098947,8.52526316 C7.04966316,8.52511579 7.04833684,8.52496842 7.04715789,8.52496842 C7.04833684,8.52496842 7.04966316,8.52511579 7.05098947,8.52526316" id="Fill-6" fill="#4570A9"></path>
            <path d="M4.18349474,13.8554316 C3.14101053,13.8554316 2.09852632,13.4573895 1.30214737,12.6618947 C0.508126316,11.8671368 0.110526316,10.8259789 0.110084211,9.78467368 C0.109494737,8.77151579 0.484989474,7.75835789 1.23730526,6.972 C1.25646316,6.99410526 1.27856842,7.01621053 1.2992,7.03684211 C2.06993684,7.80890526 3.07204211,8.20547368 4.08298947,8.22610526 L4.05646316,8.22315789 C4.08446316,8.22610526 4.11541053,8.22757895 4.14488421,8.22905263 L4.17435789,8.22905263 L4.17730526,8.23052632 C3.78235789,8.23185263 3.38578947,8.38378947 3.08515789,8.68589474 C2.78246316,8.98873684 2.63067368,9.38589474 2.63037895,9.78305263 C2.62993684,10.1802105 2.78098947,10.5773684 3.08383158,10.8800632 C3.38726316,11.1834947 3.78442105,11.3349895 4.18157895,11.3349895 C4.57903158,11.3348421 4.97663158,11.1830526 5.27962105,10.8800632 C5.56109474,10.6002105 5.71141053,10.2362105 5.73351579,9.87073684 C5.75267368,10.8831579 6.15056842,11.8896842 6.92263158,12.6618947 C6.94635789,12.6853263 6.96993684,12.7075789 6.99351579,12.7296842 C6.20730526,13.4803789 5.19547368,13.8554316 4.18349474,13.8554316 M4.42341053,8.20694737 C4.48235789,8.19501053 4.54130526,8.17894737 4.59730526,8.15964211 C4.54130526,8.18042105 4.48383158,8.19501053 4.42341053,8.20694737" id="Fill-7" fill="#3D7CC9"></path>
            <path d="M6.99351579,12.7296842 C6.96993684,12.7075789 6.94635789,12.6853263 6.92263158,12.6618947 C6.15056842,11.8896842 5.75267368,10.8831579 5.73351579,9.87073684 L5.73351579,9.856 C5.73498947,9.83094737 5.73498947,9.80736842 5.73498947,9.78378947 C5.73498947,9.17206316 6.16810526,8.66216842 6.74593684,8.54736842 C6.78425263,8.53985263 6.82404211,8.53395789 6.86383158,8.52968421 C6.88446316,8.52806316 6.90494737,8.52673684 6.92572632,8.52526316 C6.94930526,8.52378947 6.97141053,8.52378947 6.99498947,8.52378947 C7.01149474,8.52378947 7.02932632,8.52378947 7.04715789,8.52496842 C7.04833684,8.52496842 7.04966316,8.52511579 7.05098947,8.52526316 L7.06572632,8.52526316 C7.08341053,8.52673684 7.09962105,8.52673684 7.11730526,8.52968421 C7.13646316,8.53115789 7.15414737,8.53395789 7.17330526,8.53557895 C7.21604211,8.54147368 7.25730526,8.55031579 7.29856842,8.56063158 C7.84530526,8.69768421 8.25056842,9.19284211 8.25056842,9.78378947 C8.25056842,9.81164211 8.25204211,9.83978947 8.25351579,9.86926316 C8.23288421,10.8831579 7.83498947,11.8896842 7.06277895,12.6633684 C7.04067368,12.6853263 7.01709474,12.7090526 6.99351579,12.7296842" id="Fill-8" fill="#0F519D"></path>
            <path d="M4.18172632,8.23052632 L4.17730526,8.23052632 L4.17435789,8.22905263 L4.14488421,8.22905263 C4.11541053,8.22757895 4.08446316,8.22610526 4.05646316,8.22315789 L4.08298947,8.22610526 C3.07204211,8.20547368 2.06993684,7.80890526 1.2992,7.03684211 C1.27856842,7.01621053 1.25646316,6.99410526 1.23730526,6.972 C1.25646316,6.94842105 1.28004211,6.92469474 1.30214737,6.90273684 C2.07435789,6.13052632 3.08235789,5.73263158 4.09477895,5.71347368 L4.16993684,5.70890526 L4.18172632,5.70890526 C4.26410526,5.70890526 4.34530526,5.71642105 4.42341053,5.73263158 C4.98046316,5.84315789 5.40488421,6.31915789 5.43583158,6.89964211 C5.43686316,6.91673684 5.43789474,6.93294737 5.43789474,6.94945263 C5.43789474,6.95593684 5.4376,6.96242105 5.43715789,6.96905263 L5.43715789,7.03978947 C5.40930526,7.55557895 5.06873684,7.98884211 4.6032,8.15816842 L4.59730526,8.15964211 C4.54130526,8.17894737 4.48235789,8.19501053 4.42341053,8.20694737 C4.34530526,8.22315789 4.26410526,8.23052632 4.18172632,8.23052632" id="Fill-9" fill="#370020"></path>
            <path d="M9.49818947,8.19324211 C9.49804211,8.19324211 9.49789474,8.19324211 9.49774737,8.19309474 C9.49789474,8.19324211 9.49804211,8.19324211 9.49818947,8.19324211 M9.49553684,8.19265263 C9.04709474,8.08021053 8.69414737,7.72814737 8.58170526,7.28044211 L8.58185263,7.28103158 C8.67248421,7.63972632 8.91755789,7.93726316 9.24235789,8.09907368 C9.24265263,8.09907368 9.24294737,8.09922105 9.24324211,8.09936842 C9.24353684,8.09951579 9.24383158,8.09966316 9.24412632,8.09995789 C9.32355789,8.13930526 9.40770526,8.17054737 9.49553684,8.19265263 M8.58141053,7.27911579 C8.57905263,7.27012632 8.57698947,7.26113684 8.57492632,7.25214737 C8.57669474,7.26025263 8.57875789,7.26850526 8.58082105,7.27661053 C8.58096842,7.27749474 8.58111579,7.27823158 8.58141053,7.27911579 M12.7489895,6.96978947 C12.7486947,6.96949474 12.7482526,6.96905263 12.7481053,6.96875789 C14.0888632,5.56566316 14.2326947,3.43987368 13.1813684,1.88130526 C14.2332842,3.44016842 14.0900421,5.56669474 12.7489895,6.96978947 M8.54383158,6.96861053 C8.54383158,6.94709474 8.54383158,6.92572632 8.54530526,6.90553684 C8.54383158,6.92572632 8.54383158,6.94842105 8.54383158,6.96861053 M9.79528421,5.70905263 C9.79543158,5.70905263 9.79572632,5.70905263 9.79602105,5.70905263 C9.79572632,5.70905263 9.79543158,5.70905263 9.79528421,5.70905263 M9.79749474,5.70905263 C9.79955789,5.70890526 9.80176842,5.70890526 9.80383158,5.70890526 C9.80176842,5.70890526 9.79955789,5.70890526 9.79749474,5.70905263 M13.1810737,1.88101053 C13.1800421,1.87938947 13.1791579,1.87821053 13.1781263,1.87658947 C13.1791579,1.87806316 13.1800421,1.87953684 13.1810737,1.88101053 M13.1773895,1.87555789 C13.1765053,1.87437895 13.1757684,1.87305263 13.1748842,1.87187368 C13.1757684,1.87305263 13.1765053,1.87423158 13.1773895,1.87555789 M13.1737053,1.87010526 C13.1729684,1.86907368 13.1723789,1.86818947 13.1716421,1.86715789 C13.1723789,1.86818947 13.1729684,1.86907368 13.1737053,1.87010526 M13.1700211,1.86465263 C13.1694316,1.86376842 13.1689895,1.86303158 13.1684,1.86229474 C13.1689895,1.86303158 13.1694316,1.86376842 13.1700211,1.86465263 M13.1661895,1.8592 C13.1658947,1.85861053 13.1656,1.85816842 13.1651579,1.85757895 C13.1656,1.85816842 13.1658947,1.85861053 13.1661895,1.8592 M13.1625053,1.8536 C13.1622105,1.85330526 13.1620632,1.85301053 13.1617684,1.85271579 C13.1620632,1.85301053 13.1622105,1.85330526 13.1625053,1.8536 M13.1588211,1.84829474 C13.1586737,1.848 13.1585263,1.848 13.1583789,1.84770526 C13.1585263,1.848 13.1586737,1.848 13.1588211,1.84829474" id="Fill-10" fill="#6DC0AA"></path>
            <path d="M9.80383158,8.23052632 C9.69846316,8.23052632 9.59604211,8.21755789 9.49818947,8.19324211 C9.49804211,8.19324211 9.49789474,8.19324211 9.49774737,8.19309474 C9.49701053,8.19294737 9.49627368,8.1928 9.49553684,8.19265263 C9.40770526,8.17054737 9.32355789,8.13930526 9.24412632,8.09995789 C9.41271579,8.18351579 9.60282105,8.23052632 9.80383158,8.23052632 M9.24324211,8.09936842 C9.24294737,8.09922105 9.24265263,8.09907368 9.24235789,8.09907368 C9.24265263,8.09907368 9.24294737,8.09922105 9.24324211,8.09936842 M8.58185263,7.28103158 L8.58170526,7.28044211 C8.58155789,7.28 8.58141053,7.27955789 8.58141053,7.27911579 C8.58111579,7.27823158 8.58096842,7.27749474 8.58082105,7.27661053 C8.58111579,7.27808421 8.58141053,7.27955789 8.58185263,7.28103158 M12.7481053,6.96875789 C12.7267368,6.94650526 12.7053684,6.92454737 12.6834105,6.90273684 C11.9053053,6.12463158 10.8928842,5.72806316 9.87309474,5.712 L9.86867368,5.712 C9.84804211,5.71052632 9.82726316,5.71052632 9.80810526,5.71052632 L9.80383158,5.70890526 C10.2002526,5.70890526 10.5981474,5.55726316 10.9002526,5.25501053 C11.2030947,4.95231579 11.3548842,4.55471579 11.3551789,4.15726316 C11.3556211,3.75966316 11.2045684,3.36221053 10.9017263,3.05936842 C10.598,2.75652632 10.2005474,2.60503158 9.80324211,2.60503158 C9.40593684,2.60503158 9.00877895,2.75652632 8.70593684,3.05936842 C8.4112,3.35410526 8.25941053,3.73578947 8.25056842,4.12189474 L8.25056842,4.09094737 C8.23435789,3.07115789 7.83646316,2.05564211 7.05835789,1.27606316 C7.03625263,1.25410526 7.01414737,1.23332632 6.99204211,1.21284211 C7.77795789,0.460231579 8.79037895,0.0844421053 9.80309474,0.0844421053 C10.8451368,0.0844421053 11.8874737,0.482484211 12.6834105,1.27768421 C12.8602526,1.45467368 13.0174947,1.64404211 13.1549895,1.84284211 C13.1561684,1.84446316 13.1572,1.84608421 13.1583789,1.84770526 C13.1585263,1.848 13.1586737,1.848 13.1588211,1.84829474 C13.1597053,1.84962105 13.1608842,1.85124211 13.1617684,1.85271579 C13.1620632,1.85301053 13.1622105,1.85330526 13.1625053,1.8536 C13.1633895,1.85492632 13.1642737,1.85625263 13.1651579,1.85757895 C13.1656,1.85816842 13.1658947,1.85861053 13.1661895,1.8592 C13.1669263,1.86023158 13.1676632,1.86126316 13.1684,1.86229474 C13.1689895,1.86303158 13.1694316,1.86376842 13.1700211,1.86465263 C13.1704632,1.86538947 13.1712,1.86642105 13.1716421,1.86715789 C13.1723789,1.86818947 13.1729684,1.86907368 13.1737053,1.87010526 C13.1741474,1.87069474 13.1744421,1.87128421 13.1748842,1.87187368 C13.1757684,1.87305263 13.1765053,1.87437895 13.1773895,1.87555789 C13.1775368,1.87585263 13.1779789,1.87629474 13.1781263,1.87658947 C13.1791579,1.87821053 13.1800421,1.87938947 13.1810737,1.88101053 C13.1810737,1.88101053 13.1812211,1.88130526 13.1813684,1.88130526 C14.2326947,3.43987368 14.0888632,5.56566316 12.7481053,6.96875789" id="Fill-11" fill="#6CCAB8"></path>
            <path d="M9.24412632,8.09995789 C9.24383158,8.09966316 9.24353684,8.09951579 9.24324211,8.09936842 C9.24353684,8.09951579 9.24383158,8.09966316 9.24412632,8.09995789 M9.24235789,8.09907368 C8.91755789,7.93726316 8.67248421,7.63972632 8.58185263,7.28103158 L8.59025263,7.30888421 C8.68633684,7.6552 8.9264,7.94153684 9.24235789,8.09907368 M8.58082105,7.27661053 C8.57875789,7.26850526 8.57669474,7.26025263 8.57492632,7.25214737 C8.56122105,7.19187368 8.55193684,7.13012632 8.54722105,7.06690526 C8.54928421,7.08989474 8.55208421,7.11258947 8.55517895,7.13513684 L8.55753684,7.1596 C8.56092632,7.18185263 8.56608421,7.20322105 8.57050526,7.22503158 C8.57404211,7.24212632 8.57669474,7.25966316 8.58082105,7.27661053 M12.7481053,6.97082105 C12.7478105,6.97052632 12.7473684,6.97008421 12.7470737,6.96978947 C12.7473684,6.96949474 12.7478105,6.96905263 12.7481053,6.96875789 C12.7482526,6.96905263 12.7486947,6.96949474 12.7489895,6.96978947 C12.7486947,6.97008421 12.7484,6.97052632 12.7481053,6.97082105 M9.20536842,5.85981053 C9.38103158,5.76490526 9.58189474,5.71037895 9.79528421,5.70905263 C9.79543158,5.70905263 9.79572632,5.70905263 9.79602105,5.70905263 C9.79646316,5.70905263 9.79705263,5.70905263 9.79749474,5.70905263 C9.79955789,5.70890526 9.80176842,5.70890526 9.80383158,5.70890526 C9.76168421,5.70890526 9.71997895,5.71111579 9.67901053,5.71509474 L9.65366316,5.71892632 C9.62124211,5.72261053 9.58882105,5.72688421 9.55728421,5.73322105 L9.55566316,5.73351579 C9.43128421,5.75842105 9.31368421,5.80145263 9.20536842,5.85981053" id="Fill-12" fill="#00918A"></path>
            <path d="M9.80383158,8.23052632 C9.60282105,8.23052632 9.41271579,8.18351579 9.24412632,8.09995789 C9.24383158,8.09966316 9.24353684,8.09951579 9.24324211,8.09936842 C9.24294737,8.09922105 9.24265263,8.09907368 9.24235789,8.09907368 C8.9264,7.94153684 8.68633684,7.6552 8.59025263,7.30888421 L8.58185263,7.28103158 C8.58141053,7.27955789 8.58111579,7.27808421 8.58082105,7.27661053 C8.57669474,7.25966316 8.57404211,7.24212632 8.57050526,7.22503158 C8.56608421,7.20322105 8.56092632,7.18185263 8.55753684,7.1596 L8.55517895,7.13513684 C8.55208421,7.11258947 8.54928421,7.08989474 8.54722105,7.06690526 C8.54648421,7.05644211 8.54589474,7.04583158 8.54530526,7.03536842 C8.54383158,7.01326316 8.54383158,6.99115789 8.54383158,6.97052632 C8.54383158,6.96993684 8.54383158,6.9692 8.54383158,6.96861053 C8.54383158,6.94842105 8.54383158,6.92572632 8.54530526,6.90553684 C8.56741053,6.45326316 8.82854737,6.06347368 9.20536842,5.85981053 C9.31368421,5.80145263 9.43128421,5.75842105 9.55566316,5.73351579 L9.55728421,5.73322105 C9.58882105,5.72688421 9.62124211,5.72261053 9.65366316,5.71892632 L9.67901053,5.71509474 C9.71997895,5.71111579 9.76168421,5.70890526 9.80383158,5.70890526 L9.80810526,5.71052632 C9.82726316,5.71052632 9.84804211,5.71052632 9.86867368,5.712 L9.87309474,5.712 C10.8928842,5.72806316 11.9053053,6.12463158 12.6834105,6.90273684 C12.7053684,6.92454737 12.7267368,6.94650526 12.7481053,6.96875789 C12.7478105,6.96905263 12.7473684,6.96949474 12.7470737,6.96978947 C12.7473684,6.97008421 12.7478105,6.97052632 12.7481053,6.97082105 C12.7268842,6.99307368 12.7053684,7.01503158 12.6834105,7.03684211 C11.9053053,7.8148 10.8884632,8.21284211 9.86867368,8.22905263 C9.88341053,8.22743158 9.89814737,8.22610526 9.91288421,8.22463158 C9.87604211,8.22743158 9.84067368,8.23052632 9.80383158,8.23052632" id="Fill-13" fill="#1D8590"></path>
            <path d="M7.0112,5.41578947 L6.95962105,5.41578947 L6.9272,5.41416842 L6.90214737,5.41284211 L6.87709474,5.40989474 C6.85793684,5.40827368 6.83877895,5.40547368 6.81962105,5.404 C6.79898947,5.40105263 6.77835789,5.39810526 6.75757895,5.39368421 L6.73414737,5.38911579 C6.71941053,5.38631579 6.7032,5.38336842 6.68846316,5.37894737 C6.62789474,5.36421053 6.56909474,5.34637895 6.51309474,5.3228 C6.47477895,5.30821053 6.43778947,5.29052632 6.40094737,5.27136842 C6.35098947,5.24322105 6.30221053,5.21227368 6.2552,5.18 C6.23751579,5.16806316 6.22130526,5.15642105 6.20494737,5.14315789 C6.17562105,5.11810526 6.14762105,5.09305263 6.11962105,5.06652632 L6.11814737,5.06652632 C6.00614737,4.95894737 5.91477895,4.82926316 5.84698947,4.68631579 C5.77183158,4.52406316 5.73056842,4.34574737 5.73056842,4.15564211 L5.73056842,4.13663158 C5.73056842,4.12189474 5.73056842,4.10701053 5.73189474,4.09242105 L5.73189474,4.08652632 C5.74825263,3.06673684 6.14614737,2.05431579 6.92263158,1.27768421 C6.94488421,1.25557895 6.96846316,1.232 6.99204211,1.21284211 C7.01414737,1.23332632 7.03625263,1.25410526 7.05835789,1.27606316 C7.83646316,2.05564211 8.23435789,3.07115789 8.25056842,4.09094737 L8.25056842,4.15564211 C8.25056842,4.22932632 8.24467368,4.30168421 8.23288421,4.37242105 C8.22109474,4.44168421 8.20341053,4.50947368 8.17983158,4.57578947 L8.17983158,4.57726316 C8.1592,4.63326316 8.13562105,4.68631579 8.10909474,4.73922105 C8.05294737,4.84385263 7.98530526,4.93978947 7.90425263,5.02526316 C7.86446316,5.06652632 7.82172632,5.10631579 7.77604211,5.14315789 C7.65225263,5.24042105 7.51077895,5.31543158 7.35751579,5.36273684 C7.32067368,5.37305263 7.28235789,5.38336842 7.24242105,5.39058947 C7.20867368,5.39810526 7.17183158,5.404 7.13646316,5.40827368 C7.11141053,5.41136842 7.08488421,5.41284211 7.05983158,5.41416842 C7.04362105,5.41578947 7.02726316,5.41578947 7.0112,5.41578947" id="Fill-14" fill="#63001F"></path>
        </g>
    </g>
</svg>